<svg xmlns="http://www.w3.org/2000/svg" viewBox="0 0 24 24" width="48" height="48" fill="white">
  <path d="M22.508 15.54a6.63 6.63 0 0 1-3.35 1.933c-.025.132-.053.26-.08.388a6.633 6.633 0 0 1-5.181 5.185l-.388.08a6.63 6.63 0 0 1-6.42-3.351L12 12l1.508 1.54a.8.8 0 0 0 1.131 0 .8.8 0 0 0 0-1.131L13.131 10.9zm-4.757-9.52a6.63 6.63 0 0 1 1.933 3.35l.388.08a6.633 6.633 0 0 1 5.185 5.182l.08.388a6.63 6.63 0 0 1-3.351 6.42L12 12l-1.54-1.508a.8.8 0 0 0-1.131 0 .8.8 0 0 0 0 1.131L10.9 13.131zM1.492 8.46a6.63 6.63 0 0 1 3.35-1.933c.025-.132.053-.26.081-.388a6.633 6.633 0 0 1 5.18-5.182l.388-.08a6.63 6.63 0 0 1 6.42 3.351L12 12l-1.508-1.541a.8.8 0 0 0-1.131 0 .8.8 0 0 0 0 1.131l1.508 1.508zM6.25 18.02a6.63 6.63 0 0 1-1.934-3.35l-.08-.388a6.633 6.633 0 0 1-5.185-5.182l-.08-.388a6.63 6.63 0 0 1 3.35-6.42L12 12l1.54 1.508a.8.8 0 0 0 1.131 0 .8.8 0 0 0 0-1.131L13.1 10.869z"/>
</svg>
