<svg xmlns="http://www.w3.org/2000/svg" viewBox="0 0 448 512" width="48" height="48">
  <path fill="#3776AB" d="M439.8 200.5c-7.7-30.9-22.3-54.2-53.4-54.2h-40.1v47.4c0 36.8-31.2 67.8-66.8 67.8H172.7c-29.2 0-53.4 25-53.4 54.2v99.6c0 30.9 24.2 54.2 53.4 54.2h102.3c30.2 0 53.4-21.1 53.4-54.2v-21.6h-54.1c-25.5 0-45.9-19-45.9-42.5V311c0-23.5 20.4-42.5 45.9-42.5h107.3c27 0 51.4 12.6 56.2 54.2l.1 1.1c.1.4.1.8.2 1.2V345c0 10.7-11.7 15.9-18.9 9l-3.3-3.1c-20.4-20.4-47.5-31.4-76.3-31.4-60.3 0-109.1 48.8-109.1 109.1s48.8 109.1 109.1 109.1c28.8 0 55.9-11 76.3-31.4l3.3-3.1c7.2-6.9 18.9-1.7 18.9 9v36.3c0 28.5-22.6 52.4-51.1 54.1-31.1 1.9-58.2-19.1-61.9-49.8L439.8 200.5z"/>
</svg>
