<svg xmlns="http://www.w3.org/2000/svg" viewBox="0 0 64 64" width="48" height="48">
  <path fill="#E97627" d="M32 4.1c1.1 0 2.1.9 2.1 2.1S33.1 8.3 32 8.3c-1.1 0-2.1-.9-2.1-2.1S30.9 4.1 32 4.1zm0 51.5c1.1 0 2.1.9 2.1 2.1s-.9 2.1-2.1 2.1c-1.1 0-2.1-.9-2.1-2.1s1-2.1 2.1-2.1zM8.3 32c0 1.1-.9 2.1-2.1 2.1S4.1 33.1 4.1 32c0-1.1.9-2.1 2.1-2.1s2.1 1 2.1 2.1zm51.6 0c0 1.1-.9 2.1-2.1 2.1s-2.1-.9-2.1-2.1c0-1.1.9-2.1 2.1-2.1s2.1 1 2.1 2.1zM48.2 15.8c.8.8.8 2.1 0 2.9-.8.8-2.1.8-2.9 0-.8-.8-.8-2.1 0-2.9.8-.8 2.1-.8 2.9 0zm-32.4 32.4c.8.8.8 2.1 0 2.9-.8.8-2.1.8-2.9 0-.8-.8-.8-2.1 0-2.9.8-.8 2.1-.8 2.9 0zM48.2 48.2c-.8.8-2.1.8-2.9 0-.8-.8-.8-2.1 0-2.9.8-.8 2.1-.8 2.9 0 .8.8.8 2.1 0 2.9zm-32.4-32.4c-.8.8-2.1.8-2.9 0-.8-.8-.8-2.1 0-2.9.8-.8 2.1-.8 2.9 0 .8.8.8 2.1 0 2.9z"/>
  <path fill="#E97627" d="M32 18.5c1.1 0 2.1.9 2.1 2.1v22.8c0 1.1-.9 2.1-2.1 2.1s-2.1-.9-2.1-2.1V20.6c0-1.2.9-2.1 2.1-2.1zm13.5 13.5c0 1.1-.9 2.1-2.1 2.1H20.6c-1.1 0-2.1-.9-2.1-2.1s.9-2.1 2.1-2.1h22.8c1.2 0 2.1 1 2.1 2.1z"/>
</svg>
